<svg xmlns="http://www.w3.org/2000/svg" viewBox="0 0 500 760" role="img"><title>Gao Mo, grey heron and print shop owner</title><g stroke="#243E66" stroke-width="4" stroke-linecap="round" stroke-linejoin="round"><ellipse cx="254" cy="711" rx="133" ry="12" fill="#E9E8DF" stroke="none"/>
<g id="legs"><path d="M228 471 L243 471 L237 663 L225 673 L218 669 Z M277 472 L292 470 L313 654 L301 665 L289 660 Z" fill="#D5B47D"/><path d="M223 660 L237 660 L237 683 L207 706 L183 707 L216 680 L203 684 L180 684 L222 668 Z" fill="#D5B47D"/><path d="M300 653 L313 651 L321 680 L357 698 L357 706 L307 686 L316 702 L309 708 L292 681 Z" fill="#D5B47D"/><path d="M226 549 L239 550 M288 545 L300 543 M222 560 L238 561 M290 554 L301 552" fill="none" stroke-width="2"/></g>
<g id="tail"><path d="M286 433 L338 464 L328 479 L302 472 L309 490 L269 477 Z" fill="#45516B"/></g>
<g id="left-wing"><path d="M200 267 Q175 267 160 300 L145 398 L178 411 L209 329" fill="#9DB4CA"/><path d="M148 380 L183 391 L176 416 L140 405 Z" fill="#DCE6EF"/><path d="M144 406 L173 414 L168 437 L145 455 Q129 458 128 446 L136 421 Z" fill="#CAD1D7"/><path d="M140 440 L147 426 M148 445 L156 432" fill="none" stroke-width="2"/></g>
<g id="body"><path d="M203 258 Q244 246 291 259 L309 466 Q260 500 193 471 L183 345 Z" fill="#9DB4CA"/><path d="M221 259 L243 282 L271 255 L286 280 L259 306 L232 307 L214 283 Z" fill="#DCE6EF"/><path d="M246 303 L250 481" fill="none" stroke-width="2"/><path d="M268 328 L301 326 L304 366 L271 370 Z" fill="#DCE6EF"/><path d="M276 328 L274 311 L281 309 L285 328 M288 326 L290 306 L297 307 L296 326" fill="#FFFEF8"/><rect x="282" y="290" width="15" height="15" rx="2" fill="#FFFEF8"/><path d="M204 407 L232 410 L233 449 L202 446 Z" fill="#DCE6EF"/><path d="M264 410 L298 407 L301 446 L266 450 Z" fill="#DCE6EF"/><path d="M201 461 Q252 485 303 456" fill="none" stroke="#6988A8" stroke-width="2"/></g>
<g id="neck-and-head"><path d="M225 278 Q250 233 236 194 Q220 159 217 127 L266 114 Q260 149 269 183 Q294 240 272 279 Q250 296 225 278 Z" fill="#F2EBDE"/><path d="M254 132 Q246 170 259 204 Q274 249 252 281" fill="none" stroke="#A6B2BE" stroke-width="3"/><path d="M214 107 Q196 81 210 62 Q236 36 268 57 Q292 70 288 93 Q310 99 314 109 L279 121 Q253 141 225 125 Z" fill="#F2EBDE"/><path d="M214 72 Q187 62 171 84 L156 84 Q161 67 180 56 Q208 43 235 47 L246 56 Z" fill="#243E66"/><path d="M283 92 L365 124 L282 120 L267 108 Z" fill="#D5B47D"/><path d="M287 105 L350 120" fill="none" stroke-width="2"/><path d="M239 84 L254 81" fill="none" stroke-width="3"/><circle cx="250" cy="94" r="3.4" fill="#243E66"/><path d="M222 117 L238 121" fill="none" stroke-width="2"/></g>
<g id="right-wing"><path d="M288 263 Q312 259 330 293 L348 347 L320 360 L294 319" fill="#9DB4CA"/><path d="M316 341 L345 328 L357 351 L326 366 Z" fill="#DCE6EF"/></g>
<g id="print-portfolio"><path d="M341 353 L406 339 L426 467 L358 481 Z" fill="#243E66"/><path d="M346 344 L407 333 L422 456 L361 469 Z" fill="#FFFEF8"/><path d="M352 336 L409 326 L421 444 L364 456 Z" fill="#FFFEF8"/><path d="M363 359 L399 353 M365 370 L407 363 M367 380 L389 376" fill="none" stroke="#A5B4C7" stroke-width="2"/><rect x="372" y="394" width="29" height="31" rx="1" transform="rotate(-9 372 394)" fill="#EADBBD"/><path d="M337 355 Q332 344 340 340 Q348 340 352 352 L361 375 L355 387 L344 383 Z" fill="#CAD1D7"/><path d="M347 366 L353 380" fill="none" stroke-width="2"/></g></g></svg>